Luke McNamara, a college senior from a working class background joins a secret elitist college fraternity organization called "The Skulls"..

General 
Complete name : The.Skulls.2000.DVDRip.x264.AAC-AUS.mp4 
Format : MPEG-4 
Format profile : Base Media / Version 2 
Codec ID : mp42 
File size : 890 MiB 
Duration : 1h 41mn 
Overall bit rate : 1 221 Kbps

Video 
ID : 1 
Format : AVC 
Format/Info : Advanced Video Codec 
Format profile : High@L3.1 
Format settings, CABAC : Yes 
Format settings, ReFrames : 8 frames 
Codec ID : avc1 
Codec ID/Info : Advanced Video Coding 
Duration : 1h 41mn 
Bit rate mode : Variable 
Bit rate : 1 024 Kbps 
Width : 720 pixels 
Height : 416 pixels 
Display aspect ratio : 16:9 
Frame rate mode : Constant 
Frame rate : 25.000 fps 
Color space : YUV 
Chroma subsampling : 4:2:0 
Bit depth : 8 bits 
Scan type : Progressive 
Bits/(Pixel*Frame) : 0.137 
Stream size : 746 MiB (84%) 
Writing library : x264 core 112

Audio 
ID : 2 
Format : AAC 
Format/Info : Advanced Audio Codec 
Format profile : LC 
Codec ID : 40 
Duration : 1h 41mn 
Bit rate mode : Variable 
Bit rate : 192 Kbps 
Maximum bit rate : 298 Kbps 
Channel(s) : 6 channels 
Channel positions : Front: L C R, Side: L R, LFE 
Sampling rate : 48.0 KHz 
Compression mode : Lossy 
Stream size : 140 MiB (16%) 
Language : English